<mxfile host="app.diagrams.net" agent="Mozilla/5.0 (Windows NT 10.0; Win64; x64) AppleWebKit/537.36 (KHTML, like Gecko) Chrome/133.0.0.0 Safari/537.36" version="26.1.0">
  <diagram name="Page-1" id="5h2d2MQ0FJStADJ7_BCh">
    <mxGraphModel dx="880" dy="434" grid="1" gridSize="10" guides="1" tooltips="1" connect="1" arrows="1" fold="1" page="1" pageScale="1" pageWidth="827" pageHeight="1169" math="0" shadow="0">
      <root>
        <mxCell id="0" />
        <mxCell id="1" parent="0" />
        <mxCell id="lWF1h2d94blJFTGx3S3K-1" value="&lt;b&gt;&lt;i&gt;Patient&lt;/i&gt;&lt;/b&gt;" style="text;strokeColor=none;align=center;fillColor=none;html=1;verticalAlign=middle;whiteSpace=wrap;rounded=0;" vertex="1" parent="1">
          <mxGeometry x="70" y="70" width="60" height="30" as="geometry" />
        </mxCell>
        <mxCell id="lWF1h2d94blJFTGx3S3K-2" value="" style="shape=table;startSize=0;container=1;collapsible=0;childLayout=tableLayout;" vertex="1" parent="1">
          <mxGeometry x="80" y="96" width="180" height="40" as="geometry" />
        </mxCell>
        <mxCell id="lWF1h2d94blJFTGx3S3K-3" value="" style="shape=tableRow;horizontal=0;startSize=0;swimlaneHead=0;swimlaneBody=0;strokeColor=inherit;top=0;left=0;bottom=0;right=0;collapsible=0;dropTarget=0;fillColor=none;points=[[0,0.5],[1,0.5]];portConstraint=eastwest;" vertex="1" parent="lWF1h2d94blJFTGx3S3K-2">
          <mxGeometry width="180" height="40" as="geometry" />
        </mxCell>
        <mxCell id="lWF1h2d94blJFTGx3S3K-4" value="&lt;b&gt;ID&lt;/b&gt;" style="shape=partialRectangle;html=1;whiteSpace=wrap;connectable=0;strokeColor=inherit;overflow=hidden;fillColor=none;top=0;left=0;bottom=0;right=0;pointerEvents=1;" vertex="1" parent="lWF1h2d94blJFTGx3S3K-3">
          <mxGeometry width="60" height="40" as="geometry">
            <mxRectangle width="60" height="40" as="alternateBounds" />
          </mxGeometry>
        </mxCell>
        <mxCell id="lWF1h2d94blJFTGx3S3K-5" value="&lt;b&gt;&lt;i&gt;Name&lt;/i&gt;&lt;/b&gt;" style="shape=partialRectangle;html=1;whiteSpace=wrap;connectable=0;strokeColor=inherit;overflow=hidden;fillColor=none;top=0;left=0;bottom=0;right=0;pointerEvents=1;" vertex="1" parent="lWF1h2d94blJFTGx3S3K-3">
          <mxGeometry x="60" width="60" height="40" as="geometry">
            <mxRectangle width="60" height="40" as="alternateBounds" />
          </mxGeometry>
        </mxCell>
        <mxCell id="lWF1h2d94blJFTGx3S3K-6" value="&lt;b&gt;&lt;i&gt;DOB&lt;/i&gt;&lt;/b&gt;" style="shape=partialRectangle;html=1;whiteSpace=wrap;connectable=0;strokeColor=inherit;overflow=hidden;fillColor=none;top=0;left=0;bottom=0;right=0;pointerEvents=1;" vertex="1" parent="lWF1h2d94blJFTGx3S3K-3">
          <mxGeometry x="120" width="60" height="40" as="geometry">
            <mxRectangle width="60" height="40" as="alternateBounds" />
          </mxGeometry>
        </mxCell>
        <mxCell id="lWF1h2d94blJFTGx3S3K-7" value="&lt;b&gt;&lt;i&gt;Consultant&lt;/i&gt;&lt;/b&gt;" style="text;strokeColor=none;align=center;fillColor=none;html=1;verticalAlign=middle;whiteSpace=wrap;rounded=0;" vertex="1" parent="1">
          <mxGeometry x="80" y="227" width="60" height="30" as="geometry" />
        </mxCell>
        <mxCell id="lWF1h2d94blJFTGx3S3K-8" value="" style="shape=table;startSize=0;container=1;collapsible=0;childLayout=tableLayout;" vertex="1" parent="1">
          <mxGeometry x="80" y="258" width="120" height="40" as="geometry" />
        </mxCell>
        <mxCell id="lWF1h2d94blJFTGx3S3K-9" value="" style="shape=tableRow;horizontal=0;startSize=0;swimlaneHead=0;swimlaneBody=0;strokeColor=inherit;top=0;left=0;bottom=0;right=0;collapsible=0;dropTarget=0;fillColor=none;points=[[0,0.5],[1,0.5]];portConstraint=eastwest;" vertex="1" parent="lWF1h2d94blJFTGx3S3K-8">
          <mxGeometry width="120" height="40" as="geometry" />
        </mxCell>
        <mxCell id="lWF1h2d94blJFTGx3S3K-10" value="&lt;b&gt;&lt;i&gt;ID&lt;/i&gt;&lt;/b&gt;" style="shape=partialRectangle;html=1;whiteSpace=wrap;connectable=0;strokeColor=inherit;overflow=hidden;fillColor=none;top=0;left=0;bottom=0;right=0;pointerEvents=1;" vertex="1" parent="lWF1h2d94blJFTGx3S3K-9">
          <mxGeometry width="60" height="40" as="geometry">
            <mxRectangle width="60" height="40" as="alternateBounds" />
          </mxGeometry>
        </mxCell>
        <mxCell id="lWF1h2d94blJFTGx3S3K-11" value="Name" style="shape=partialRectangle;html=1;whiteSpace=wrap;connectable=0;strokeColor=inherit;overflow=hidden;fillColor=none;top=0;left=0;bottom=0;right=0;pointerEvents=1;" vertex="1" parent="lWF1h2d94blJFTGx3S3K-9">
          <mxGeometry x="60" width="60" height="40" as="geometry">
            <mxRectangle width="60" height="40" as="alternateBounds" />
          </mxGeometry>
        </mxCell>
        <mxCell id="lWF1h2d94blJFTGx3S3K-12" value="" style="endArrow=none;html=1;rounded=0;" edge="1" parent="1">
          <mxGeometry width="50" height="50" relative="1" as="geometry">
            <mxPoint x="85" y="128" as="sourcePoint" />
            <mxPoint x="135" y="128" as="targetPoint" />
          </mxGeometry>
        </mxCell>
        <mxCell id="lWF1h2d94blJFTGx3S3K-13" value="" style="endArrow=none;html=1;rounded=0;" edge="1" parent="1">
          <mxGeometry width="50" height="50" relative="1" as="geometry">
            <mxPoint x="86" y="289" as="sourcePoint" />
            <mxPoint x="136" y="289" as="targetPoint" />
          </mxGeometry>
        </mxCell>
        <mxCell id="lWF1h2d94blJFTGx3S3K-20" value="&lt;b&gt;&lt;i&gt;Word&lt;/i&gt;&lt;/b&gt;" style="text;strokeColor=none;align=center;fillColor=none;html=1;verticalAlign=middle;whiteSpace=wrap;rounded=0;" vertex="1" parent="1">
          <mxGeometry x="66" y="303" width="60" height="30" as="geometry" />
        </mxCell>
        <mxCell id="lWF1h2d94blJFTGx3S3K-21" value="" style="shape=table;startSize=0;container=1;collapsible=0;childLayout=tableLayout;" vertex="1" parent="1">
          <mxGeometry x="80" y="328" width="120" height="40" as="geometry" />
        </mxCell>
        <mxCell id="lWF1h2d94blJFTGx3S3K-22" value="" style="shape=tableRow;horizontal=0;startSize=0;swimlaneHead=0;swimlaneBody=0;strokeColor=inherit;top=0;left=0;bottom=0;right=0;collapsible=0;dropTarget=0;fillColor=none;points=[[0,0.5],[1,0.5]];portConstraint=eastwest;" vertex="1" parent="lWF1h2d94blJFTGx3S3K-21">
          <mxGeometry width="120" height="40" as="geometry" />
        </mxCell>
        <mxCell id="lWF1h2d94blJFTGx3S3K-23" value="&lt;b&gt;&lt;i&gt;ID&lt;/i&gt;&lt;/b&gt;" style="shape=partialRectangle;html=1;whiteSpace=wrap;connectable=0;strokeColor=inherit;overflow=hidden;fillColor=none;top=0;left=0;bottom=0;right=0;pointerEvents=1;" vertex="1" parent="lWF1h2d94blJFTGx3S3K-22">
          <mxGeometry width="60" height="40" as="geometry">
            <mxRectangle width="60" height="40" as="alternateBounds" />
          </mxGeometry>
        </mxCell>
        <mxCell id="lWF1h2d94blJFTGx3S3K-24" value="Name" style="shape=partialRectangle;html=1;whiteSpace=wrap;connectable=0;strokeColor=inherit;overflow=hidden;fillColor=none;top=0;left=0;bottom=0;right=0;pointerEvents=1;" vertex="1" parent="lWF1h2d94blJFTGx3S3K-22">
          <mxGeometry x="60" width="60" height="40" as="geometry">
            <mxRectangle width="60" height="40" as="alternateBounds" />
          </mxGeometry>
        </mxCell>
        <mxCell id="lWF1h2d94blJFTGx3S3K-25" value="" style="endArrow=none;html=1;rounded=0;" edge="1" parent="1">
          <mxGeometry width="50" height="50" relative="1" as="geometry">
            <mxPoint x="86" y="359" as="sourcePoint" />
            <mxPoint x="136" y="359" as="targetPoint" />
          </mxGeometry>
        </mxCell>
        <mxCell id="lWF1h2d94blJFTGx3S3K-26" value="&lt;b&gt;&lt;i&gt;Nurse&lt;/i&gt;&lt;/b&gt;" style="text;strokeColor=none;align=center;fillColor=none;html=1;verticalAlign=middle;whiteSpace=wrap;rounded=0;" vertex="1" parent="1">
          <mxGeometry x="70" y="374" width="60" height="30" as="geometry" />
        </mxCell>
        <mxCell id="lWF1h2d94blJFTGx3S3K-27" value="" style="shape=table;startSize=0;container=1;collapsible=0;childLayout=tableLayout;" vertex="1" parent="1">
          <mxGeometry x="80" y="400" width="180" height="40" as="geometry" />
        </mxCell>
        <mxCell id="lWF1h2d94blJFTGx3S3K-28" value="" style="shape=tableRow;horizontal=0;startSize=0;swimlaneHead=0;swimlaneBody=0;strokeColor=inherit;top=0;left=0;bottom=0;right=0;collapsible=0;dropTarget=0;fillColor=none;points=[[0,0.5],[1,0.5]];portConstraint=eastwest;" vertex="1" parent="lWF1h2d94blJFTGx3S3K-27">
          <mxGeometry width="180" height="40" as="geometry" />
        </mxCell>
        <mxCell id="lWF1h2d94blJFTGx3S3K-29" value="&lt;b&gt;Number&lt;/b&gt;" style="shape=partialRectangle;html=1;whiteSpace=wrap;connectable=0;strokeColor=inherit;overflow=hidden;fillColor=none;top=0;left=0;bottom=0;right=0;pointerEvents=1;" vertex="1" parent="lWF1h2d94blJFTGx3S3K-28">
          <mxGeometry width="60" height="40" as="geometry">
            <mxRectangle width="60" height="40" as="alternateBounds" />
          </mxGeometry>
        </mxCell>
        <mxCell id="lWF1h2d94blJFTGx3S3K-30" value="&lt;b&gt;&lt;i&gt;Name&lt;/i&gt;&lt;/b&gt;" style="shape=partialRectangle;html=1;whiteSpace=wrap;connectable=0;strokeColor=inherit;overflow=hidden;fillColor=none;top=0;left=0;bottom=0;right=0;pointerEvents=1;" vertex="1" parent="lWF1h2d94blJFTGx3S3K-28">
          <mxGeometry x="60" width="60" height="40" as="geometry">
            <mxRectangle width="60" height="40" as="alternateBounds" />
          </mxGeometry>
        </mxCell>
        <mxCell id="lWF1h2d94blJFTGx3S3K-31" value="&lt;b&gt;&lt;i&gt;Address&lt;/i&gt;&lt;/b&gt;" style="shape=partialRectangle;html=1;whiteSpace=wrap;connectable=0;strokeColor=inherit;overflow=hidden;fillColor=none;top=0;left=0;bottom=0;right=0;pointerEvents=1;" vertex="1" parent="lWF1h2d94blJFTGx3S3K-28">
          <mxGeometry x="120" width="60" height="40" as="geometry">
            <mxRectangle width="60" height="40" as="alternateBounds" />
          </mxGeometry>
        </mxCell>
        <mxCell id="lWF1h2d94blJFTGx3S3K-32" value="" style="endArrow=none;html=1;rounded=0;" edge="1" parent="1">
          <mxGeometry width="50" height="50" relative="1" as="geometry">
            <mxPoint x="85" y="432" as="sourcePoint" />
            <mxPoint x="135" y="432" as="targetPoint" />
          </mxGeometry>
        </mxCell>
        <mxCell id="lWF1h2d94blJFTGx3S3K-33" value="&lt;b&gt;&lt;i&gt;Drugs&lt;/i&gt;&lt;/b&gt;" style="text;strokeColor=none;align=center;fillColor=none;html=1;verticalAlign=middle;whiteSpace=wrap;rounded=0;" vertex="1" parent="1">
          <mxGeometry x="68" y="450" width="60" height="30" as="geometry" />
        </mxCell>
        <mxCell id="lWF1h2d94blJFTGx3S3K-34" value="" style="shape=table;startSize=0;container=1;collapsible=0;childLayout=tableLayout;" vertex="1" parent="1">
          <mxGeometry x="80" y="476" width="180" height="40" as="geometry" />
        </mxCell>
        <mxCell id="lWF1h2d94blJFTGx3S3K-35" value="" style="shape=tableRow;horizontal=0;startSize=0;swimlaneHead=0;swimlaneBody=0;strokeColor=inherit;top=0;left=0;bottom=0;right=0;collapsible=0;dropTarget=0;fillColor=none;points=[[0,0.5],[1,0.5]];portConstraint=eastwest;" vertex="1" parent="lWF1h2d94blJFTGx3S3K-34">
          <mxGeometry width="180" height="40" as="geometry" />
        </mxCell>
        <mxCell id="lWF1h2d94blJFTGx3S3K-36" value="&lt;b&gt;Code&lt;/b&gt;" style="shape=partialRectangle;html=1;whiteSpace=wrap;connectable=0;strokeColor=inherit;overflow=hidden;fillColor=none;top=0;left=0;bottom=0;right=0;pointerEvents=1;" vertex="1" parent="lWF1h2d94blJFTGx3S3K-35">
          <mxGeometry width="60" height="40" as="geometry">
            <mxRectangle width="60" height="40" as="alternateBounds" />
          </mxGeometry>
        </mxCell>
        <mxCell id="lWF1h2d94blJFTGx3S3K-37" value="&lt;b&gt;&lt;i&gt;Dosage&lt;/i&gt;&lt;/b&gt;" style="shape=partialRectangle;html=1;whiteSpace=wrap;connectable=0;strokeColor=inherit;overflow=hidden;fillColor=none;top=0;left=0;bottom=0;right=0;pointerEvents=1;" vertex="1" parent="lWF1h2d94blJFTGx3S3K-35">
          <mxGeometry x="60" width="60" height="40" as="geometry">
            <mxRectangle width="60" height="40" as="alternateBounds" />
          </mxGeometry>
        </mxCell>
        <mxCell id="lWF1h2d94blJFTGx3S3K-38" value="&lt;b&gt;&lt;i&gt;Brand&lt;/i&gt;&lt;/b&gt;" style="shape=partialRectangle;html=1;whiteSpace=wrap;connectable=0;strokeColor=inherit;overflow=hidden;fillColor=none;top=0;left=0;bottom=0;right=0;pointerEvents=1;" vertex="1" parent="lWF1h2d94blJFTGx3S3K-35">
          <mxGeometry x="120" width="60" height="40" as="geometry">
            <mxRectangle width="60" height="40" as="alternateBounds" />
          </mxGeometry>
        </mxCell>
        <mxCell id="lWF1h2d94blJFTGx3S3K-39" value="" style="endArrow=none;html=1;rounded=0;" edge="1" parent="1">
          <mxGeometry width="50" height="50" relative="1" as="geometry">
            <mxPoint x="85" y="508" as="sourcePoint" />
            <mxPoint x="135" y="508" as="targetPoint" />
          </mxGeometry>
        </mxCell>
        <mxCell id="lWF1h2d94blJFTGx3S3K-40" value="&lt;b&gt;&lt;i&gt;Patient Consultant&lt;/i&gt;&lt;/b&gt;" style="text;strokeColor=none;align=center;fillColor=none;html=1;verticalAlign=middle;whiteSpace=wrap;rounded=0;" vertex="1" parent="1">
          <mxGeometry x="78" y="150" width="110" height="30" as="geometry" />
        </mxCell>
        <mxCell id="lWF1h2d94blJFTGx3S3K-41" value="" style="shape=table;startSize=0;container=1;collapsible=0;childLayout=tableLayout;" vertex="1" parent="1">
          <mxGeometry x="80" y="175" width="140" height="45" as="geometry" />
        </mxCell>
        <mxCell id="lWF1h2d94blJFTGx3S3K-42" value="" style="shape=tableRow;horizontal=0;startSize=0;swimlaneHead=0;swimlaneBody=0;strokeColor=inherit;top=0;left=0;bottom=0;right=0;collapsible=0;dropTarget=0;fillColor=none;points=[[0,0.5],[1,0.5]];portConstraint=eastwest;" vertex="1" parent="lWF1h2d94blJFTGx3S3K-41">
          <mxGeometry width="140" height="45" as="geometry" />
        </mxCell>
        <mxCell id="lWF1h2d94blJFTGx3S3K-43" value="&lt;b&gt;&lt;i&gt;Patient ID&lt;/i&gt;&lt;/b&gt;" style="shape=partialRectangle;html=1;whiteSpace=wrap;connectable=0;strokeColor=inherit;overflow=hidden;fillColor=none;top=0;left=0;bottom=0;right=0;pointerEvents=1;" vertex="1" parent="lWF1h2d94blJFTGx3S3K-42">
          <mxGeometry width="70" height="45" as="geometry">
            <mxRectangle width="70" height="45" as="alternateBounds" />
          </mxGeometry>
        </mxCell>
        <mxCell id="lWF1h2d94blJFTGx3S3K-44" value="&lt;b&gt;&lt;i&gt;Consultant&lt;/i&gt;&lt;/b&gt;" style="shape=partialRectangle;html=1;whiteSpace=wrap;connectable=0;strokeColor=inherit;overflow=hidden;fillColor=none;top=0;left=0;bottom=0;right=0;pointerEvents=1;" vertex="1" parent="lWF1h2d94blJFTGx3S3K-42">
          <mxGeometry x="70" width="70" height="45" as="geometry">
            <mxRectangle width="70" height="45" as="alternateBounds" />
          </mxGeometry>
        </mxCell>
        <mxCell id="lWF1h2d94blJFTGx3S3K-46" value="" style="endArrow=none;dashed=1;html=1;rounded=0;" edge="1" parent="1">
          <mxGeometry width="50" height="50" relative="1" as="geometry">
            <mxPoint x="90" y="206" as="sourcePoint" />
            <mxPoint x="140" y="206" as="targetPoint" />
          </mxGeometry>
        </mxCell>
        <mxCell id="lWF1h2d94blJFTGx3S3K-47" value="" style="endArrow=none;dashed=1;html=1;rounded=0;" edge="1" parent="1">
          <mxGeometry width="50" height="50" relative="1" as="geometry">
            <mxPoint x="161" y="205" as="sourcePoint" />
            <mxPoint x="201" y="205" as="targetPoint" />
          </mxGeometry>
        </mxCell>
        <mxCell id="lWF1h2d94blJFTGx3S3K-48" value="" style="endArrow=none;html=1;rounded=0;" edge="1" parent="1">
          <mxGeometry width="50" height="50" relative="1" as="geometry">
            <mxPoint x="105" y="213" as="sourcePoint" />
            <mxPoint x="195" y="213" as="targetPoint" />
          </mxGeometry>
        </mxCell>
        <mxCell id="lWF1h2d94blJFTGx3S3K-49" style="edgeStyle=orthogonalEdgeStyle;rounded=0;orthogonalLoop=1;jettySize=auto;html=1;exitX=0;exitY=0.5;exitDx=0;exitDy=0;entryX=0.006;entryY=0.3;entryDx=0;entryDy=0;entryPerimeter=0;" edge="1" parent="1" source="lWF1h2d94blJFTGx3S3K-42" target="lWF1h2d94blJFTGx3S3K-3">
          <mxGeometry relative="1" as="geometry">
            <Array as="points">
              <mxPoint x="50" y="198" />
              <mxPoint x="50" y="108" />
            </Array>
          </mxGeometry>
        </mxCell>
        <mxCell id="lWF1h2d94blJFTGx3S3K-50" style="edgeStyle=orthogonalEdgeStyle;rounded=0;orthogonalLoop=1;jettySize=auto;html=1;exitX=0;exitY=0.5;exitDx=0;exitDy=0;entryX=0;entryY=0.5;entryDx=0;entryDy=0;" edge="1" parent="1" source="lWF1h2d94blJFTGx3S3K-42" target="lWF1h2d94blJFTGx3S3K-9">
          <mxGeometry relative="1" as="geometry">
            <Array as="points">
              <mxPoint x="80" y="210" />
              <mxPoint x="50" y="210" />
              <mxPoint x="50" y="278" />
            </Array>
          </mxGeometry>
        </mxCell>
        <mxCell id="lWF1h2d94blJFTGx3S3K-51" value="" style="shape=table;startSize=0;container=1;collapsible=0;childLayout=tableLayout;" vertex="1" parent="1">
          <mxGeometry x="260" y="96" width="80" height="40" as="geometry" />
        </mxCell>
        <mxCell id="lWF1h2d94blJFTGx3S3K-52" value="" style="shape=tableRow;horizontal=0;startSize=0;swimlaneHead=0;swimlaneBody=0;strokeColor=inherit;top=0;left=0;bottom=0;right=0;collapsible=0;dropTarget=0;fillColor=none;points=[[0,0.5],[1,0.5]];portConstraint=eastwest;" vertex="1" parent="lWF1h2d94blJFTGx3S3K-51">
          <mxGeometry width="80" height="40" as="geometry" />
        </mxCell>
        <mxCell id="lWF1h2d94blJFTGx3S3K-53" value="&lt;b&gt;&lt;i&gt;Consultant ID&lt;/i&gt;&lt;/b&gt;" style="shape=partialRectangle;html=1;whiteSpace=wrap;connectable=0;strokeColor=inherit;overflow=hidden;fillColor=none;top=0;left=0;bottom=0;right=0;pointerEvents=1;" vertex="1" parent="lWF1h2d94blJFTGx3S3K-52">
          <mxGeometry width="80" height="40" as="geometry">
            <mxRectangle width="80" height="40" as="alternateBounds" />
          </mxGeometry>
        </mxCell>
        <mxCell id="lWF1h2d94blJFTGx3S3K-54" style="edgeStyle=orthogonalEdgeStyle;rounded=0;orthogonalLoop=1;jettySize=auto;html=1;exitX=0;exitY=0.5;exitDx=0;exitDy=0;entryX=-0.025;entryY=0.875;entryDx=0;entryDy=0;entryPerimeter=0;" edge="1" parent="1" source="lWF1h2d94blJFTGx3S3K-3" target="lWF1h2d94blJFTGx3S3K-9">
          <mxGeometry relative="1" as="geometry">
            <mxPoint x="40" y="260" as="targetPoint" />
            <Array as="points">
              <mxPoint x="80" y="120" />
              <mxPoint x="10" y="120" />
              <mxPoint x="10" y="293" />
            </Array>
          </mxGeometry>
        </mxCell>
        <mxCell id="lWF1h2d94blJFTGx3S3K-55" value="" style="shape=table;startSize=0;container=1;collapsible=0;childLayout=tableLayout;" vertex="1" parent="1">
          <mxGeometry x="340" y="96" width="60" height="40" as="geometry" />
        </mxCell>
        <mxCell id="lWF1h2d94blJFTGx3S3K-56" value="" style="shape=tableRow;horizontal=0;startSize=0;swimlaneHead=0;swimlaneBody=0;strokeColor=inherit;top=0;left=0;bottom=0;right=0;collapsible=0;dropTarget=0;fillColor=none;points=[[0,0.5],[1,0.5]];portConstraint=eastwest;" vertex="1" parent="lWF1h2d94blJFTGx3S3K-55">
          <mxGeometry width="60" height="40" as="geometry" />
        </mxCell>
        <mxCell id="lWF1h2d94blJFTGx3S3K-57" value="&lt;b&gt;&lt;i&gt;Word ID&lt;/i&gt;&lt;/b&gt;" style="shape=partialRectangle;html=1;whiteSpace=wrap;connectable=0;strokeColor=inherit;overflow=hidden;fillColor=none;top=0;left=0;bottom=0;right=0;pointerEvents=1;" vertex="1" parent="lWF1h2d94blJFTGx3S3K-56">
          <mxGeometry width="60" height="40" as="geometry">
            <mxRectangle width="60" height="40" as="alternateBounds" />
          </mxGeometry>
        </mxCell>
        <mxCell id="lWF1h2d94blJFTGx3S3K-58" value="" style="endArrow=none;dashed=1;html=1;rounded=0;" edge="1" parent="1">
          <mxGeometry width="50" height="50" relative="1" as="geometry">
            <mxPoint x="270" y="127" as="sourcePoint" />
            <mxPoint x="330" y="127" as="targetPoint" />
          </mxGeometry>
        </mxCell>
        <mxCell id="lWF1h2d94blJFTGx3S3K-59" value="" style="endArrow=none;dashed=1;html=1;rounded=0;" edge="1" parent="1">
          <mxGeometry width="50" height="50" relative="1" as="geometry">
            <mxPoint x="351" y="126" as="sourcePoint" />
            <mxPoint x="391" y="126" as="targetPoint" />
          </mxGeometry>
        </mxCell>
        <mxCell id="lWF1h2d94blJFTGx3S3K-61" style="edgeStyle=orthogonalEdgeStyle;rounded=0;orthogonalLoop=1;jettySize=auto;html=1;exitX=0;exitY=0.5;exitDx=0;exitDy=0;entryX=0;entryY=0.5;entryDx=0;entryDy=0;" edge="1" parent="1" source="lWF1h2d94blJFTGx3S3K-3" target="lWF1h2d94blJFTGx3S3K-22">
          <mxGeometry relative="1" as="geometry">
            <Array as="points">
              <mxPoint x="30" y="116" />
              <mxPoint x="30" y="348" />
            </Array>
          </mxGeometry>
        </mxCell>
        <mxCell id="lWF1h2d94blJFTGx3S3K-62" value="" style="shape=table;startSize=0;container=1;collapsible=0;childLayout=tableLayout;" vertex="1" parent="1">
          <mxGeometry x="200" y="328" width="60" height="40" as="geometry" />
        </mxCell>
        <mxCell id="lWF1h2d94blJFTGx3S3K-63" value="" style="shape=tableRow;horizontal=0;startSize=0;swimlaneHead=0;swimlaneBody=0;strokeColor=inherit;top=0;left=0;bottom=0;right=0;collapsible=0;dropTarget=0;fillColor=none;points=[[0,0.5],[1,0.5]];portConstraint=eastwest;" vertex="1" parent="lWF1h2d94blJFTGx3S3K-62">
          <mxGeometry width="60" height="40" as="geometry" />
        </mxCell>
        <mxCell id="lWF1h2d94blJFTGx3S3K-64" value="&lt;b&gt;&lt;i&gt;Nurse ID&lt;/i&gt;&lt;/b&gt;" style="shape=partialRectangle;html=1;whiteSpace=wrap;connectable=0;strokeColor=inherit;overflow=hidden;fillColor=none;top=0;left=0;bottom=0;right=0;pointerEvents=1;" vertex="1" parent="lWF1h2d94blJFTGx3S3K-63">
          <mxGeometry width="60" height="40" as="geometry">
            <mxRectangle width="60" height="40" as="alternateBounds" />
          </mxGeometry>
        </mxCell>
        <mxCell id="lWF1h2d94blJFTGx3S3K-65" style="edgeStyle=orthogonalEdgeStyle;rounded=0;orthogonalLoop=1;jettySize=auto;html=1;exitX=0;exitY=0.5;exitDx=0;exitDy=0;entryX=-0.011;entryY=0.675;entryDx=0;entryDy=0;entryPerimeter=0;" edge="1" parent="1" source="lWF1h2d94blJFTGx3S3K-22" target="lWF1h2d94blJFTGx3S3K-28">
          <mxGeometry relative="1" as="geometry">
            <Array as="points">
              <mxPoint x="80" y="360" />
              <mxPoint x="40" y="360" />
              <mxPoint x="40" y="427" />
            </Array>
          </mxGeometry>
        </mxCell>
        <mxCell id="lWF1h2d94blJFTGx3S3K-66" value="" style="endArrow=none;dashed=1;html=1;rounded=0;" edge="1" parent="1">
          <mxGeometry width="50" height="50" relative="1" as="geometry">
            <mxPoint x="205" y="358" as="sourcePoint" />
            <mxPoint x="255" y="358" as="targetPoint" />
          </mxGeometry>
        </mxCell>
        <mxCell id="lWF1h2d94blJFTGx3S3K-67" value="" style="shape=table;startSize=0;container=1;collapsible=0;childLayout=tableLayout;" vertex="1" parent="1">
          <mxGeometry x="260" y="400" width="60" height="40" as="geometry" />
        </mxCell>
        <mxCell id="lWF1h2d94blJFTGx3S3K-68" value="" style="shape=tableRow;horizontal=0;startSize=0;swimlaneHead=0;swimlaneBody=0;strokeColor=inherit;top=0;left=0;bottom=0;right=0;collapsible=0;dropTarget=0;fillColor=none;points=[[0,0.5],[1,0.5]];portConstraint=eastwest;" vertex="1" parent="lWF1h2d94blJFTGx3S3K-67">
          <mxGeometry width="60" height="40" as="geometry" />
        </mxCell>
        <mxCell id="lWF1h2d94blJFTGx3S3K-69" value="&lt;b&gt;&lt;i&gt;Word ID&lt;/i&gt;&lt;/b&gt;" style="shape=partialRectangle;html=1;whiteSpace=wrap;connectable=0;strokeColor=inherit;overflow=hidden;fillColor=none;top=0;left=0;bottom=0;right=0;pointerEvents=1;" vertex="1" parent="lWF1h2d94blJFTGx3S3K-68">
          <mxGeometry width="60" height="40" as="geometry">
            <mxRectangle width="60" height="40" as="alternateBounds" />
          </mxGeometry>
        </mxCell>
        <mxCell id="lWF1h2d94blJFTGx3S3K-70" value="" style="endArrow=none;dashed=1;html=1;rounded=0;" edge="1" parent="1">
          <mxGeometry width="50" height="50" relative="1" as="geometry">
            <mxPoint x="266" y="430" as="sourcePoint" />
            <mxPoint x="316" y="430" as="targetPoint" />
          </mxGeometry>
        </mxCell>
        <mxCell id="lWF1h2d94blJFTGx3S3K-71" style="edgeStyle=orthogonalEdgeStyle;rounded=0;orthogonalLoop=1;jettySize=auto;html=1;exitX=1;exitY=0.5;exitDx=0;exitDy=0;entryX=1;entryY=0.5;entryDx=0;entryDy=0;" edge="1" parent="1" source="lWF1h2d94blJFTGx3S3K-68" target="lWF1h2d94blJFTGx3S3K-63">
          <mxGeometry relative="1" as="geometry">
            <Array as="points">
              <mxPoint x="370" y="420" />
              <mxPoint x="370" y="348" />
            </Array>
          </mxGeometry>
        </mxCell>
        <mxCell id="lWF1h2d94blJFTGx3S3K-72" value="&lt;b&gt;&lt;i&gt;Patient Nurse Drugs&lt;/i&gt;&lt;/b&gt;" style="text;strokeColor=none;align=center;fillColor=none;html=1;verticalAlign=middle;whiteSpace=wrap;rounded=0;" vertex="1" parent="1">
          <mxGeometry x="70" y="530" width="140" height="30" as="geometry" />
        </mxCell>
        <mxCell id="lWF1h2d94blJFTGx3S3K-73" value="" style="shape=table;startSize=0;container=1;collapsible=0;childLayout=tableLayout;" vertex="1" parent="1">
          <mxGeometry x="82" y="556" width="180" height="44" as="geometry" />
        </mxCell>
        <mxCell id="lWF1h2d94blJFTGx3S3K-74" value="" style="shape=tableRow;horizontal=0;startSize=0;swimlaneHead=0;swimlaneBody=0;strokeColor=inherit;top=0;left=0;bottom=0;right=0;collapsible=0;dropTarget=0;fillColor=none;points=[[0,0.5],[1,0.5]];portConstraint=eastwest;" vertex="1" parent="lWF1h2d94blJFTGx3S3K-73">
          <mxGeometry width="180" height="44" as="geometry" />
        </mxCell>
        <mxCell id="lWF1h2d94blJFTGx3S3K-75" value="&lt;b&gt;&lt;i&gt;Drug ID&lt;/i&gt;&lt;/b&gt;" style="shape=partialRectangle;html=1;whiteSpace=wrap;connectable=0;strokeColor=inherit;overflow=hidden;fillColor=none;top=0;left=0;bottom=0;right=0;pointerEvents=1;" vertex="1" parent="lWF1h2d94blJFTGx3S3K-74">
          <mxGeometry width="60" height="44" as="geometry">
            <mxRectangle width="60" height="44" as="alternateBounds" />
          </mxGeometry>
        </mxCell>
        <mxCell id="lWF1h2d94blJFTGx3S3K-76" value="&lt;b&gt;&lt;i&gt;Nurse ID&lt;/i&gt;&lt;/b&gt;" style="shape=partialRectangle;html=1;whiteSpace=wrap;connectable=0;strokeColor=inherit;overflow=hidden;fillColor=none;top=0;left=0;bottom=0;right=0;pointerEvents=1;" vertex="1" parent="lWF1h2d94blJFTGx3S3K-74">
          <mxGeometry x="60" width="60" height="44" as="geometry">
            <mxRectangle width="60" height="44" as="alternateBounds" />
          </mxGeometry>
        </mxCell>
        <mxCell id="lWF1h2d94blJFTGx3S3K-77" value="&lt;b&gt;&lt;i&gt;Patient ID&lt;/i&gt;&lt;/b&gt;" style="shape=partialRectangle;html=1;whiteSpace=wrap;connectable=0;strokeColor=inherit;overflow=hidden;fillColor=none;top=0;left=0;bottom=0;right=0;pointerEvents=1;" vertex="1" parent="lWF1h2d94blJFTGx3S3K-74">
          <mxGeometry x="120" width="60" height="44" as="geometry">
            <mxRectangle width="60" height="44" as="alternateBounds" />
          </mxGeometry>
        </mxCell>
        <mxCell id="lWF1h2d94blJFTGx3S3K-79" value="" style="endArrow=none;dashed=1;html=1;rounded=0;" edge="1" parent="1">
          <mxGeometry width="50" height="50" relative="1" as="geometry">
            <mxPoint x="90" y="585" as="sourcePoint" />
            <mxPoint x="130" y="585" as="targetPoint" />
          </mxGeometry>
        </mxCell>
        <mxCell id="lWF1h2d94blJFTGx3S3K-80" value="" style="endArrow=none;dashed=1;html=1;rounded=0;" edge="1" parent="1">
          <mxGeometry width="50" height="50" relative="1" as="geometry">
            <mxPoint x="152" y="585" as="sourcePoint" />
            <mxPoint x="192" y="585" as="targetPoint" />
          </mxGeometry>
        </mxCell>
        <mxCell id="lWF1h2d94blJFTGx3S3K-81" value="" style="endArrow=none;dashed=1;html=1;rounded=0;" edge="1" parent="1">
          <mxGeometry width="50" height="50" relative="1" as="geometry">
            <mxPoint x="213" y="586" as="sourcePoint" />
            <mxPoint x="253" y="586" as="targetPoint" />
          </mxGeometry>
        </mxCell>
        <mxCell id="lWF1h2d94blJFTGx3S3K-82" value="" style="shape=table;startSize=0;container=1;collapsible=0;childLayout=tableLayout;" vertex="1" parent="1">
          <mxGeometry x="262" y="556" width="180" height="44" as="geometry" />
        </mxCell>
        <mxCell id="lWF1h2d94blJFTGx3S3K-83" value="" style="shape=tableRow;horizontal=0;startSize=0;swimlaneHead=0;swimlaneBody=0;strokeColor=inherit;top=0;left=0;bottom=0;right=0;collapsible=0;dropTarget=0;fillColor=none;points=[[0,0.5],[1,0.5]];portConstraint=eastwest;" vertex="1" parent="lWF1h2d94blJFTGx3S3K-82">
          <mxGeometry width="180" height="44" as="geometry" />
        </mxCell>
        <mxCell id="lWF1h2d94blJFTGx3S3K-84" value="&lt;b&gt;&lt;i&gt;Dosage&lt;/i&gt;&lt;/b&gt;" style="shape=partialRectangle;html=1;whiteSpace=wrap;connectable=0;strokeColor=inherit;overflow=hidden;fillColor=none;top=0;left=0;bottom=0;right=0;pointerEvents=1;" vertex="1" parent="lWF1h2d94blJFTGx3S3K-83">
          <mxGeometry width="60" height="44" as="geometry">
            <mxRectangle width="60" height="44" as="alternateBounds" />
          </mxGeometry>
        </mxCell>
        <mxCell id="lWF1h2d94blJFTGx3S3K-85" value="&lt;b&gt;&lt;i&gt;Time&lt;/i&gt;&lt;/b&gt;" style="shape=partialRectangle;html=1;whiteSpace=wrap;connectable=0;strokeColor=inherit;overflow=hidden;fillColor=none;top=0;left=0;bottom=0;right=0;pointerEvents=1;" vertex="1" parent="lWF1h2d94blJFTGx3S3K-83">
          <mxGeometry x="60" width="60" height="44" as="geometry">
            <mxRectangle width="60" height="44" as="alternateBounds" />
          </mxGeometry>
        </mxCell>
        <mxCell id="lWF1h2d94blJFTGx3S3K-86" value="&lt;b&gt;&lt;i&gt;Date&lt;/i&gt;&lt;/b&gt;" style="shape=partialRectangle;html=1;whiteSpace=wrap;connectable=0;strokeColor=inherit;overflow=hidden;fillColor=none;top=0;left=0;bottom=0;right=0;pointerEvents=1;" vertex="1" parent="lWF1h2d94blJFTGx3S3K-83">
          <mxGeometry x="120" width="60" height="44" as="geometry">
            <mxRectangle width="60" height="44" as="alternateBounds" />
          </mxGeometry>
        </mxCell>
        <mxCell id="lWF1h2d94blJFTGx3S3K-87" value="" style="endArrow=none;html=1;rounded=0;" edge="1" parent="1">
          <mxGeometry width="50" height="50" relative="1" as="geometry">
            <mxPoint x="215" y="595" as="sourcePoint" />
            <mxPoint x="365" y="595" as="targetPoint" />
          </mxGeometry>
        </mxCell>
        <mxCell id="lWF1h2d94blJFTGx3S3K-88" style="edgeStyle=orthogonalEdgeStyle;rounded=0;orthogonalLoop=1;jettySize=auto;html=1;exitX=0;exitY=0.5;exitDx=0;exitDy=0;entryX=0;entryY=0.5;entryDx=0;entryDy=0;" edge="1" parent="1" source="lWF1h2d94blJFTGx3S3K-74" target="lWF1h2d94blJFTGx3S3K-35">
          <mxGeometry relative="1" as="geometry">
            <Array as="points">
              <mxPoint x="30" y="578" />
              <mxPoint x="30" y="496" />
            </Array>
          </mxGeometry>
        </mxCell>
        <mxCell id="lWF1h2d94blJFTGx3S3K-89" style="edgeStyle=orthogonalEdgeStyle;rounded=0;orthogonalLoop=1;jettySize=auto;html=1;exitX=1;exitY=0.5;exitDx=0;exitDy=0;entryX=1.033;entryY=0.775;entryDx=0;entryDy=0;entryPerimeter=0;" edge="1" parent="1" source="lWF1h2d94blJFTGx3S3K-83" target="lWF1h2d94blJFTGx3S3K-68">
          <mxGeometry relative="1" as="geometry" />
        </mxCell>
        <mxCell id="lWF1h2d94blJFTGx3S3K-94" style="edgeStyle=orthogonalEdgeStyle;rounded=0;orthogonalLoop=1;jettySize=auto;html=1;exitX=1;exitY=0.5;exitDx=0;exitDy=0;entryX=1;entryY=0.5;entryDx=0;entryDy=0;" edge="1" parent="1" source="lWF1h2d94blJFTGx3S3K-83" target="lWF1h2d94blJFTGx3S3K-56">
          <mxGeometry relative="1" as="geometry">
            <Array as="points">
              <mxPoint x="442" y="590" />
              <mxPoint x="500" y="590" />
              <mxPoint x="500" y="116" />
            </Array>
          </mxGeometry>
        </mxCell>
      </root>
    </mxGraphModel>
  </diagram>
</mxfile>
